<svg xmlns="http://www.w3.org/2000/svg" viewBox="0 0 600 603.8"><path d="M470.3 24.4h-340.6c-59.2 0-107.3 48-107.3 107.3v340.5c0 59.2 48 107.3 107.3 107.3h340.5c59.2 0 107.3-48 107.3-107.3v-340.7c0-59-48-107.2-107.2-107.2zm30.7 64h12.3v94.2l-93.8.2-.3-94 81.8-.4zm-280.2 156.6c17.8-24.7 46.6-40.8 79.2-40.8s61.4 16 79.2 40.7c11.6 16 18.5 35.5 18.5 57 0 53.6-44 97.5-97.7 97.5-54 0-97.7-43.8-97.7-97.7 0-21.4 7-41 18.5-57zm302.7 227c0 29.3-24 53.2-53.2 53.2h-340.6c-29.3 0-53.2-23.8-53.2-53.2v-227h83c-7.3 17.5-11.3 36.7-11.3 57 0 83.6 68 151.7 151.8 151.7 83.7 0 151.8-68 151.8-151.8 0-20.4-4-39.6-11.2-57h83v227z"/></svg>