<?xml version="1.0" encoding="utf-8"?>
<!-- Generator: Adobe Illustrator 20.1.0, SVG Export Plug-In . SVG Version: 6.00 Build 0)  -->
<!DOCTYPE svg PUBLIC "-//W3C//DTD SVG 1.1//EN" "http://www.w3.org/Graphics/SVG/1.1/DTD/svg11.dtd">
<svg version="1.1" id="linkedin" xmlns="http://www.w3.org/2000/svg" xmlns:xlink="http://www.w3.org/1999/xlink" x="0px" y="0px"
	 viewBox="0 0 600 603.8" style="enable-background:new 0 0 600 603.8;" xml:space="preserve">
<g>
	<path d="M320.3,275.4v-0.8c-0.2,0.3-0.4,0.6-0.5,0.8H320.3z"/>
	<path d="M529,31.5H71c-21.9,0-39.7,17.3-39.7,38.7v463.3c0,21.4,17.8,38.7,39.7,38.7H529c21.9,0,39.7-17.4,39.7-38.7V70.3
		C568.7,48.9,550.9,31.5,529,31.5z M194.2,484.2H113V240h81.2V484.2z M153.6,206.7h-0.5c-27.2,0-44.8-18.8-44.8-42.2
		c0-23.9,18.2-42.2,45.9-42.2c27.8,0,44.9,18.2,45.4,42.2C199.6,187.9,181.9,206.7,153.6,206.7z M486.9,484.2h-81.2V353.6
		c0-32.8-11.7-55.2-41.1-55.2c-22.4,0-35.8,15.1-41.6,29.7c-2.1,5.2-2.7,12.5-2.7,19.8v136.4h-81.2c0,0,1.1-221.3,0-244.2h81.2v34.6
		c10.8-16.6,30.1-40.3,73.2-40.3c53.4,0,93.4,34.9,93.4,109.9V484.2z"/>
</g>
<g>
</g>
<g>
</g>
<g>
</g>
<g>
</g>
<g>
</g>
<g>
</g>
<g>
</g>
<g>
</g>
<g>
</g>
<g>
</g>
<g>
</g>
<g>
</g>
<g>
</g>
<g>
</g>
<g>
</g>
</svg>
